 <svg  version="1.0" xmlns="http://www.w3.org/2000/svg"  width="300.000000pt" height="300.000000pt" viewBox="0 0 300.000000 300.000000"  preserveAspectRatio="xMidYMid meet">  <g transform="translate(0.000000,300.000000) scale(0.100000,-0.100000)" fill="#a2beec" stroke="none"> <path d="M2085 2831 c-30 -5 -45 -21 -44 -45 1 -18 2 -18 8 4 6 23 13 25 66 28 46 2 62 -1 72 -13 13 -19 3 -58 -25 -89 -16 -17 -16 -18 8 -15 14 2 31 0 38 -4 6 -5 12 -4 12 1 0 6 -7 12 -14 15 -12 5 -13 13 -6 38 17 60 -34 96 -115 80z"/> <path d="M2765 2811 c24 -5 30 -11 30 -33 0 -15 5 -32 11 -38 8 -8 9 -1 6 22 -6 44 -19 58 -51 57 -25 -1 -25 -2 4 -8z"/> <path d="M2080 2759 c34 -14 34 -13 14 -51 -15 -29 -15 -31 -1 -20 9 8 25 29 36 48 l20 34 -47 -1 c-41 0 -44 -2 -22 -10z"/> <path d="M2099 2657 c11 -11 66 -16 81 -7 8 5 -7 9 -38 11 -28 2 -48 1 -43 -4z"/> <path d="M2450 2657 c0 -20 22 -32 73 -41 40 -7 49 -25 17 -33 -14 -4 -19 -11 -15 -22 3 -9 -2 -26 -10 -37 -8 -10 -15 -27 -15 -37 0 -16 8 -18 72 -15 62 3 73 6 76 22 4 17 -1 18 -52 12 -49 -7 -55 -6 -50 9 5 12 14 15 30 11 23 -6 33 7 15 18 -5 3 -7 23 -4 45 6 43 -1 50 -56 62 -20 4 -46 11 -58 14 -17 6 -23 3 -23 -8z"/> <path d="M1150 2605 c-233 -24 -389 -50 -470 -77 -19 -7 -55 -11 -80 -9 -37 2 -49 -2 -67 -21 -12 -13 -47 -49 -77 -80 -134 -138 -176 -303 -179 -698 -2 -179 -1 -188 26 -267 16 -46 33 -85 38 -88 5 -4 9 -24 9 -45 0 -55 8 -69 58 -101 l45 -28 -33 -18 c-104 -57 -255 -202 -335 -323 -56 -85 -84 -145 -84 -180 l0 -35 34 60 c18 33 43 76 54 97 34 61 137 183 207 244 81 72 123 100 208 139 59 27 86 55 53 55 -38 0 -58 150 -33 250 25 102 89 222 143 269 25 23 50 41 54 41 5 0 9 5 9 10 0 6 -7 10 -15 10 -30 0 -15 127 27 225 28 68 85 147 124 174 l33 23 43 -26 c47 -27 146 -125 167 -163 6 -13 18 -23 25 -23 8 0 16 -7 20 -15 6 -16 62 -20 85 -6 8 5 24 3 40 -5 40 -21 109 -17 167 10 51 24 52 24 80 5 35 -23 82 -24 112 -3 22 15 25 15 46 -5 43 -40 146 -16 146 34 0 25 118 142 174 171 51 27 55 27 79 11 57 -37 167 -245 167 -316 0 -23 7 -34 29 -45 33 -17 112 -102 149 -161 40 -62 72 -170 72 -244 0 -73 -30 -150 -62 -159 -34 -8 -18 -27 46 -56 78 -33 165 -93 238 -162 101 -96 151 -158 228 -285 45 -73 50 -79 50 -52 0 106 -247 390 -432 497 l-48 28 21 26 c81 104 153 444 129 615 -24 170 -76 306 -173 456 -28 44 -41 73 -39 92 4 35 -29 59 -84 59 -22 0 -44 3 -48 7 -10 10 -78 33 -99 33 -10 0 -39 6 -65 14 -148 45 -744 69 -1012 41z m860 -41 c115 -18 256 -51 284 -66 12 -7 42 -13 68 -14 58 -3 68 -9 68 -39 0 -12 16 -49 35 -81 97 -165 148 -301 165 -441 15 -119 2 -271 -35 -393 -7 -25 -21 -72 -31 -105 -19 -66 -60 -145 -74 -145 -14 0 -13 4 9 42 35 59 44 118 32 198 -6 40 -18 84 -25 98 -7 15 -17 38 -20 52 l-7 25 18 -22 c17 -22 83 -49 83 -35 0 4 -23 21 -51 37 -28 17 -78 60 -111 97 -33 37 -77 78 -99 90 -30 17 -39 28 -39 48 0 76 -90 263 -151 314 -16 14 -29 34 -29 46 0 13 -9 24 -25 30 -14 5 -25 14 -25 19 0 16 -38 23 -59 11 -16 -8 -22 -7 -29 6 -12 21 -42 11 -49 -16 -7 -26 -15 -25 -50 4 -98 81 -183 109 -343 110 -132 1 -152 -6 -263 -88 -79 -59 -117 -115 -117 -172 0 -22 -6 -49 -14 -59 -12 -17 -15 -16 -49 22 -20 22 -56 53 -79 69 -24 16 -45 32 -48 36 -3 3 -18 10 -33 13 -58 15 -151 -78 -199 -199 -26 -68 -32 -95 -32 -166 -1 -91 3 -84 -70 -140 -19 -15 -19 -14 -3 17 18 34 23 98 8 107 -12 8 -17 -10 -20 -69 -1 -36 -15 -77 -50 -150 -64 -133 -86 -216 -78 -300 3 -35 14 -79 22 -96 24 -45 7 -58 -41 -33 -49 26 -74 60 -74 102 0 19 -16 75 -36 125 l-37 91 6 240 c4 186 10 261 25 329 25 113 82 228 134 268 21 17 45 44 53 60 19 36 47 51 99 54 23 1 79 12 126 23 47 12 159 30 250 41 91 11 181 22 200 25 83 10 717 -5 810 -20z m-335 -178 c60 -15 109 -40 149 -73 17 -14 54 -36 84 -49 38 -17 53 -28 50 -40 -3 -17 -50 -45 -96 -59 -21 -6 -23 -5 -13 13 20 38 -7 34 -34 -5 -24 -36 -26 -37 -31 -15 -4 12 -19 29 -35 37 -36 19 -119 19 -146 0 -18 -13 -22 -12 -38 5 -20 23 -74 26 -123 9 -25 -8 -35 -7 -56 6 -31 20 -103 23 -146 5 -17 -7 -38 -27 -47 -44 -14 -25 -18 -28 -21 -13 -14 66 88 174 214 227 42 17 63 19 144 15 53 -3 118 -12 145 -19z m305 -88 c34 21 53 15 46 -13 -6 -24 7 -35 19 -15 9 15 25 12 25 -5 0 -8 -9 -15 -21 -15 -11 0 -29 -5 -40 -11 -17 -8 -24 -6 -40 15 -11 14 -27 26 -35 26 -8 0 -14 6 -14 13 0 24 14 29 27 10 11 -15 17 -15 33 -5z m-602 -115 c9 -15 16 -15 71 -3 67 14 111 4 111 -25 0 -19 20 -19 34 0 14 19 74 30 121 21 29 -6 37 -12 41 -35 5 -25 10 -28 45 -28 33 0 39 3 34 17 -4 13 1 19 20 22 24 5 25 4 12 -16 -8 -11 -20 -31 -28 -43 -8 -13 -19 -23 -26 -23 -7 0 -13 -7 -13 -16 0 -21 -29 -43 -56 -44 -12 0 -33 9 -47 20 -30 24 -45 25 -71 5 -26 -19 -70 -19 -86 0 -16 19 -59 19 -86 0 -12 -8 -50 -17 -86 -21 -59 -6 -67 -5 -86 17 -20 21 -23 22 -35 6 -6 -10 -26 -19 -42 -20 -26 -2 -30 1 -28 21 2 13 -3 22 -12 22 -35 0 -23 53 15 65 11 3 20 12 20 20 0 7 12 23 26 34 35 27 138 30 152 4z"/> <path d="M1820 2531 c0 -5 4 -12 8 -15 5 -3 14 -31 21 -63 18 -78 19 -82 20 -52 1 32 -26 126 -39 134 -6 3 -10 2 -10 -4z"/> <path d="M1881 2538 c-1 -4 4 -19 10 -35 6 -15 15 -48 20 -73 l8 -45 -3 45 c-3 38 -33 129 -35 108z"/> <path d="M1077 2473 c-9 -26 -18 -68 -21 -93 -3 -27 4 -8 18 45 26 98 27 125 3 48z"/> <path d="M1126 2462 c-9 -32 -16 -67 -15 -78 0 -10 5 -3 10 16 5 19 14 52 21 73 6 20 9 39 6 42 -3 3 -13 -21 -22 -53z"/> <path d="M825 2420 c-15 -45 -25 -83 -23 -86 3 -2 17 33 32 77 14 45 25 84 22 86 -2 2 -16 -32 -31 -77z"/> <path d="M2111 2500 c-2 -10 36 -110 44 -118 4 -4 4 4 0 18 -9 30 -43 107 -44 100z"/> <path d="M777 2453 c-20 -46 -57 -175 -57 -194 1 -8 16 33 34 91 18 58 36 113 41 123 4 9 5 17 3 17 -3 0 -12 -17 -21 -37z"/> <path d="M2197 2432 c9 -29 20 -52 25 -52 4 0 0 19 -9 43 -24 62 -35 68 -16 9z"/> <path d="M636 2436 c-3 -13 -25 -57 -48 -97 -79 -140 -159 -347 -157 -408 0 -14 9 6 19 44 9 39 29 99 43 135 25 67 126 271 138 280 8 6 23 70 16 70 -3 0 -8 -11 -11 -24z"/> <path d="M2344 2410 c9 -19 23 -46 30 -60 8 -14 17 -40 21 -57 3 -18 11 -33 16 -33 5 0 9 2 9 4 0 14 -65 154 -77 166 -13 12 -12 9 1 -20z"/> <path d="M1095 2309 c-10 -69 -1 -72 12 -4 5 30 6 55 2 55 -4 0 -10 -23 -14 -51z"/> <path d="M2167 2313 c-18 -17 -6 -35 19 -30 22 4 25 2 19 -17 -18 -56 -18 -76 1 -76 37 0 94 21 94 34 0 18 -23 26 -41 15 -23 -14 -30 -10 -19 10 5 11 10 31 10 45 0 23 -4 26 -38 26 -21 0 -42 -3 -45 -7z"/> <path d="M2424 2235 c3 -11 14 -54 26 -95 31 -111 60 -264 62 -328 l2 -57 3 48 c7 87 -53 381 -88 436 -9 13 -10 13 -5 -4z"/> <path d="M2325 1940 c-11 -17 5 -67 26 -86 20 -18 20 -18 10 10 -6 15 -11 41 -11 57 0 29 -13 39 -25 19z"/> <path d="M416 1848 c-7 -62 -8 -193 -1 -187 5 5 15 239 11 239 -2 0 -6 -24 -10 -52z"/> <path d="M2724 2428 c-15 -13 -37 -21 -47 -20 -34 6 -45 -15 -44 -86 2 -59 5 -68 25 -78 13 -6 29 -17 35 -23 21 -21 57 -12 75 19 9 16 22 30 29 30 7 0 17 9 23 20 13 23 0 54 -26 64 -13 5 -15 9 -6 18 24 24 8 78 -24 78 -6 0 -24 -10 -40 -22z m46 -20 c0 -7 -7 -22 -15 -32 -22 -29 -18 -44 13 -48 40 -4 33 -23 -10 -26 -41 -3 -48 -15 -20 -31 15 -9 15 -12 2 -21 -11 -7 -19 -4 -30 11 -10 13 -22 18 -33 13 -13 -4 -17 -1 -17 15 0 12 6 21 15 21 8 0 15 7 15 15 0 8 -7 15 -15 15 -8 0 -15 9 -15 20 0 13 7 20 20 20 11 0 20 -4 20 -10 0 -5 5 -10 10 -10 6 0 10 9 10 20 0 10 8 24 18 29 23 14 32 13 32 -1z"/> <path d="M1900 2001 c14 -5 45 -18 69 -29 25 -12 46 -20 48 -18 6 6 -107 56 -125 55 -11 0 -8 -4 8 -8z"/> <path d="M1140 1971 c24 -14 110 -25 110 -13 0 5 -10 9 -22 9 -13 -1 -41 2 -63 6 -26 5 -35 4 -25 -2z"/> <path d="M980 1946 c-19 -13 -53 -40 -75 -60 -33 -31 -29 -29 26 11 37 27 75 53 85 60 11 6 15 12 9 12 -5 0 -26 -11 -45 -23z"/> <path d="M2075 1923 c6 -5 35 -28 66 -51 30 -23 66 -54 80 -69 32 -38 79 -110 79 -123 0 -6 7 -24 15 -40 8 -16 19 -60 25 -97 l9 -68 -4 66 c-7 114 -61 219 -160 306 -44 39 -144 109 -110 76z"/> <path d="M1519 1856 l-36 -25 -37 20 c-45 24 -47 18 -2 -10 42 -26 44 -26 86 9 42 36 37 39 -11 6z"/> <path d="M820 1816 c-19 -18 -48 -48 -65 -67 -16 -19 1 -5 38 31 61 59 72 71 65 70 -2 0 -19 -16 -38 -34z"/> <path d="M1734 1739 c-9 -15 4 -24 51 -37 45 -11 177 -48 214 -58 18 -5 23 -4 19 7 -2 8 -53 30 -114 50 -142 47 -161 51 -170 38z"/> <path d="M1150 1690 c-30 -10 -84 -27 -120 -38 -59 -18 -91 -42 -57 -42 20 0 206 48 235 60 23 10 31 41 10 39 -7 0 -38 -9 -68 -19z"/> <path d="M1697 1663 c-16 -16 -43 -18 -235 -20 -119 -2 -219 -3 -222 -3 -3 0 3 -7 14 -15 10 -8 24 -24 30 -37 16 -32 43 -35 57 -4 11 24 13 25 158 28 140 3 147 2 164 -19 21 -27 47 -20 47 12 0 13 5 27 10 30 12 7 14 45 2 45 -4 0 -16 -8 -25 -17z"/> <path d="M104 1544 c-17 -16 -24 -32 -21 -45 3 -12 -1 -23 -13 -29 -11 -6 -22 -27 -26 -47 -6 -30 -3 -39 15 -54 11 -9 21 -26 21 -38 0 -31 35 -46 57 -23 17 16 20 16 45 2 40 -22 62 -5 66 51 2 24 7 48 13 54 13 13 11 59 -3 73 -7 7 -25 12 -40 12 -23 0 -28 4 -28 23 0 51 -46 62 -86 21z m56 -41 c0 -34 15 -60 24 -44 4 6 18 11 32 11 34 0 31 -26 -7 -49 -29 -18 -30 -19 -10 -26 15 -4 21 -15 21 -36 0 -34 -19 -38 -45 -9 l-19 21 -23 -28 -24 -28 3 34 c2 27 -1 35 -15 37 -26 4 -29 8 -21 38 4 19 13 26 30 26 21 0 23 4 18 25 -8 32 1 55 21 55 10 0 15 -10 15 -27z"/> <path d="M2338 1410 c-3 -25 -9 -54 -14 -64 -5 -13 -4 -17 4 -12 12 7 27 87 20 108 -3 7 -7 -7 -10 -32z"/> <path d="M916 1349 c-39 -10 -106 -36 -150 -58 -66 -32 -87 -49 -113 -88 -18 -27 -33 -54 -33 -61 0 -21 20 -13 29 12 22 55 132 124 261 162 97 28 287 26 353 -4 64 -29 142 -110 174 -179 28 -60 41 -163 29 -226 -14 -73 -130 -157 -275 -198 -67 -19 -220 -27 -276 -14 -117 28 -179 66 -255 157 -55 66 -70 78 -70 56 0 -7 -26 -28 -58 -46 -126 -72 -182 -113 -212 -153 -25 -35 -30 -51 -30 -100 0 -32 -13 -125 -30 -206 -47 -237 -57 -403 -24 -403 11 0 14 16 14 65 0 35 5 97 11 137 10 68 13 75 44 93 252 147 441 240 549 269 28 8 58 17 67 20 9 4 23 -1 34 -14 27 -30 78 -27 104 7 12 14 24 37 27 50 4 12 7 23 9 23 1 0 19 -15 38 -34 46 -43 89 -54 123 -31 27 17 54 70 54 105 0 11 5 20 10 20 6 0 10 -4 10 -9 0 -5 12 -23 26 -40 31 -37 65 -40 91 -7 14 17 33 25 68 30 48 7 51 6 67 -24 10 -17 24 -33 33 -36 20 -8 62 20 84 57 l19 30 6 -33 c8 -45 41 -97 69 -107 29 -11 84 11 118 48 l27 29 18 -40 c34 -75 79 -87 129 -34 18 19 36 31 41 27 5 -5 43 -18 84 -31 135 -40 281 -122 449 -251 123 -94 120 -88 122 -231 1 -81 3 -88 22 -88 19 0 19 4 14 98 -8 119 -20 202 -50 341 -14 63 -22 126 -20 156 4 42 0 57 -26 97 -16 26 -40 53 -53 61 -13 8 -68 42 -123 76 -55 34 -100 66 -100 72 0 23 -18 9 -74 -57 -66 -79 -114 -111 -210 -143 -168 -55 -411 0 -534 121 -64 62 -74 99 -57 204 14 85 28 117 79 181 82 104 204 145 364 124 99 -13 206 -47 270 -85 49 -28 107 -89 107 -111 0 -8 5 -15 10 -15 32 0 -9 82 -62 125 -47 37 -169 89 -257 109 -134 29 -282 14 -360 -37 -55 -37 -115 -101 -141 -152 -21 -41 -26 -45 -61 -45 -33 0 -41 4 -55 33 -51 100 -140 179 -230 205 -61 18 -236 13 -318 -9z m624 -285 c-13 -34 -13 -131 1 -174 6 -19 12 -68 12 -108 l2 -72 -41 0 -40 0 6 55 c3 30 2 59 -3 64 -5 5 -2 22 8 41 13 25 16 53 13 126 l-3 94 27 0 c25 0 27 -2 18 -26z m-909 -226 c60 -85 158 -153 250 -172 14 -3 31 -17 37 -31 16 -34 16 -35 -12 -35 -77 0 -405 -144 -527 -231 -15 -10 -31 -19 -36 -19 -6 0 -18 -9 -28 -20 -27 -30 -46 -26 -35 7 14 41 40 211 40 261 0 79 31 113 193 218 45 28 85 52 89 53 4 1 17 -14 29 -31z m1928 -56 c63 -42 123 -88 133 -102 12 -16 20 -49 23 -95 3 -38 14 -120 25 -182 22 -126 24 -146 10 -121 -6 9 -45 42 -88 75 -202 152 -332 221 -480 253 -80 18 -78 34 11 65 87 30 169 91 212 158 9 15 22 27 29 26 6 0 62 -35 125 -77z m-1118 -42 c-6 -35 -14 -67 -19 -72 -12 -12 -34 -1 -60 32 l-23 29 28 15 c15 8 39 26 52 40 14 14 26 24 28 22 2 -2 -1 -32 -6 -66z m230 -4 l27 -17 -35 -34 c-20 -19 -39 -32 -44 -29 -12 7 -29 73 -29 113 l0 35 28 -26 c15 -14 39 -33 53 -42z m-406 -89 c-8 -19 -19 -39 -25 -42 -15 -9 -75 12 -94 34 -16 17 -14 19 41 30 32 6 65 16 73 21 21 13 23 -1 5 -43z m564 23 c9 -1 30 -7 46 -14 l30 -13 -35 -21 c-56 -35 -76 -30 -104 28 l-24 49 35 -14 c20 -8 43 -15 52 -15z m-782 -53 c-33 -44 -57 -45 -84 -4 -13 18 -23 35 -23 38 0 2 29 2 66 1 l65 -4 -24 -31z m1043 15 c-17 -30 -48 -62 -59 -62 -9 0 -61 60 -61 71 0 2 29 5 65 6 58 1 64 -1 55 -15z"/> <path d="M224 514 c-39 -66 -81 -196 -93 -287 -17 -126 -11 -142 9 -22 19 121 46 207 91 296 35 70 31 78 -7 13z"/> <path d="M2780 516 c0 -2 20 -46 44 -97 46 -97 71 -178 85 -277 8 -55 9 -56 10 -14 2 84 -40 221 -107 350 -19 36 -32 52 -32 38z"/> <path d="M1004 447 c-42 -33 -79 -75 -72 -82 2 -3 31 22 63 55 67 67 69 73 9 27z"/> <path d="M1029 392 l-52 -48 18 -53 c16 -49 19 -52 44 -46 36 9 78 53 86 93 7 35 -1 40 -30 18 -15 -11 -17 -17 -7 -28 15 -18 -2 -38 -33 -38 -15 0 -17 -2 -6 -9 9 -6 10 -10 2 -16 -16 -9 -38 11 -44 40 -4 26 7 34 17 13 3 -7 4 -4 1 7 -6 25 2 37 45 67 19 13 36 29 38 36 5 25 -29 10 -79 -36z"/> <path d="M2328 413 c18 -2 45 -2 60 0 15 2 0 4 -33 4 -33 0 -45 -2 -27 -4z"/> <path d="M2287 393 c-9 -17 -29 -113 -25 -124 2 -7 11 20 19 60 15 67 16 81 6 64z"/> <path d="M2336 359 c-13 -45 -35 -154 -31 -157 2 -2 24 -7 49 -9 42 -5 46 -3 57 21 11 23 10 29 -5 44 -17 16 -18 16 -12 -5 7 -23 4 -27 -35 -37 -20 -4 -29 -1 -33 10 -4 12 -2 15 9 10 11 -4 15 2 15 27 0 18 5 38 12 45 9 9 8 12 -5 12 -10 0 -14 5 -11 15 7 18 50 20 60 3 4 -6 2 -14 -5 -16 -7 -2 0 -12 18 -23 38 -23 41 -23 41 -3 0 19 -45 64 -63 64 -7 0 -22 3 -34 6 -15 4 -24 1 -27 -7z"/> <path d="M1171 320 c-2 -29 -51 -89 -86 -106 -20 -9 -34 -19 -31 -21 5 -5 65 25 82 41 20 20 45 77 40 89 -3 7 -5 6 -5 -3z"/> <path d="M930 308 c0 -22 29 -90 48 -110 8 -10 22 -18 31 -18 10 0 7 5 -8 13 -17 8 -31 30 -44 67 -20 60 -27 72 -27 48z"/> <path d="M1720 313 c-19 -3 -39 -8 -43 -13 -12 -11 85 0 98 11 5 6 3 8 -5 7 -8 0 -31 -3 -50 -5z"/> <path d="M1755 254 c-123 -25 -124 -25 -140 -56 -20 -41 -19 -41 9 -13 13 13 41 28 62 34 46 13 57 4 72 -52 10 -36 10 -38 -11 -31 -12 4 -26 13 -30 20 -9 16 -43 19 -52 4 -9 -14 39 -41 85 -47 l40 -6 0 77 c0 42 -3 75 -7 75 -5 -1 -17 -3 -28 -5z"/> <path d="M1843 180 c0 -47 2 -66 4 -42 2 23 2 61 0 85 -2 23 -4 4 -4 -43z"/> <path d="M558 162 c-21 -8 -101 -83 -95 -88 2 -3 22 12 43 33 22 21 48 43 59 50 22 13 19 15 -7 5z"/> <path d="M650 112 c17 -28 34 -52 36 -52 8 0 -39 80 -55 93 -7 6 1 -12 19 -41z"/> <path d="M1600 147 c0 -20 23 -48 53 -63 l32 -15 -32 26 c-18 14 -37 34 -43 43 -5 9 -10 13 -10 9z"/> <path d="M547 89 c-42 -35 -61 -64 -51 -80 3 -6 14 2 25 20 37 62 96 61 87 -1 -4 -22 -1 -28 14 -28 10 0 18 7 18 15 0 19 -40 105 -49 105 -3 0 -23 -14 -44 -31z"/> </g> </svg> 