{
  "accessors": [
    {
      "bufferView": 2,
      "componentType": 5126,
      "count": 16651,
      "max": [
        1.0000001192092896,
        1.0000001192092896,
        0.0
      ],
      "min": [
        -1.0000001192092896,
        -1.0000001192092896,
        -1.1326993703842163
      ],
      "type": "VEC3"
    },
    {
      "bufferView": 2,
      "byteOffset": 199812,
      "componentType": 5126,
      "count": 16651,
      "max": [
        0.9919739961624146,
        0.9919739961624146,
        1.0
      ],
      "min": [
        -0.9919739961624146,
        -0.9919739961624146,
        0.12305329740047455
      ],
      "type": "VEC3"
    },
    {
      "bufferView": 1,
      "componentType": 5126,
      "count": 16651,
      "max": [
        1.0001308917999268,
        1.0001307725906372
      ],
      "min": [
        -0.00013072417641524225,
        -0.00013072417641524225
      ],
      "type": "VEC2"
    },
    {
      "bufferView": 0,
      "componentType": 5125,
      "count": 98304,
      "type": "SCALAR"
    },
    {
      "bufferView": 3,
      "componentType": 5126,
      "count": 998,
      "max": [
        20.79166603088379
      ],
      "min": [
        0.0
      ],
      "type": "SCALAR"
    },
    {
      "bufferView": 4,
      "componentType": 5126,
      "count": 998,
      "max": [
        0.4998425841331482,
        0.7071065902709961,
        0.7071067094802856,
        0.7071067094802856
      ],
      "min": [
        -0.7071068286895752,
        -0.49763354659080505,
        -0.49763360619544983,
        -0.49984249472618103
      ],
      "type": "VEC4"
    }
  ],
  "animations": [
    {
      "channels": [
        {
          "sampler": 0,
          "target": {
            "node": 9,
            "path": "rotation"
          }
        }
      ],
      "name": "Plane|PlaneAction",
      "samplers": [
        {
          "input": 4,
          "interpolation": "LINEAR",
          "output": 5
        }
      ]
    }
  ],
  "asset": {
    "extras": {
      "author": "alexantropov1986 (https://sketchfab.com/alexantropov1986)",
      "license": "SKETCHFAB Editorial (https://sketchfab.com/licenses)",
      "source": "https://sketchfab.com/3d-models/wormhole-black-hole-galaxy-c26eff50075d460ab994a9847d92584c",
      "title": "Wormhole Black Hole Galaxy"
    },
    "generator": "Sketchfab-12.66.0",
    "version": "2.0"
  },
  "bufferViews": [
    {
      "buffer": 0,
      "byteLength": 393216,
      "name": "floatBufferViews",
      "target": 34963
    },
    {
      "buffer": 0,
      "byteLength": 133208,
      "byteOffset": 393216,
      "byteStride": 8,
      "name": "floatBufferViews",
      "target": 34962
    },
    {
      "buffer": 0,
      "byteLength": 399624,
      "byteOffset": 526424,
      "byteStride": 12,
      "name": "floatBufferViews",
      "target": 34962
    },
    {
      "buffer": 0,
      "byteLength": 3992,
      "byteOffset": 926048,
      "name": "floatBufferViews"
    },
    {
      "buffer": 0,
      "byteLength": 15968,
      "byteOffset": 930040,
      "byteStride": 16,
      "name": "floatBufferViews"
    }
  ],
  "buffers": [
    {
      "byteLength": 946008,
      "uri": "scene.bin"
    }
  ],
  "images": [
    {
      "uri": "textures/wormhole_baseColor.jpeg"
    }
  ],
  "materials": [
    {
      "doubleSided": true,
      "name": "wormhole",
      "pbrMetallicRoughness": {
        "baseColorTexture": {
          "index": 0
        },
        "metallicFactor": 0.0
      }
    }
  ],
  "meshes": [
    {
      "name": "Plane_wormhole_0",
      "primitives": [
        {
          "attributes": {
            "NORMAL": 1,
            "POSITION": 0,
            "TEXCOORD_0": 2
          },
          "indices": 3,
          "material": 0,
          "mode": 4
        }
      ]
    }
  ],
  "nodes": [
    {
      "children": [
        1
      ],
      "matrix": [
        1.0,
        0.0,
        0.0,
        0.0,
        0.0,
        2.220446049250313e-16,
        -1.0,
        0.0,
        0.0,
        1.0,
        2.220446049250313e-16,
        0.0,
        0.0,
        0.0,
        0.0,
        1.0
      ],
      "name": "Sketchfab_model"
    },
    {
      "children": [
        2
      ],
      "matrix": [
        1.0,
        0.0,
        0.0,
        0.0,
        0.0,
        0.0,
        1.0,
        0.0,
        0.0,
        -1.0,
        0.0,
        0.0,
        0.0,
        0.0,
        0.0,
        1.0
      ],
      "name": "wormhole2.fbx"
    },
    {
      "children": [
        3
      ],
      "name": "Object_2"
    },
    {
      "children": [
        4,
        7,
        9,
        11
      ],
      "name": "RootNode"
    },
    {
      "children": [
        5
      ],
      "name": "Light",
      "rotation": [
        0.16907571256160736,
        0.7558803558349609,
        -0.2721713185310364,
        0.5709474682807922
      ],
      "scale": [
        100.00000762939453,
        100.0,
        100.0
      ],
      "translation": [
        -0.814656138420105,
        300.010986328125,
        3.776681423187256
      ]
    },
    {
      "children": [
        6
      ],
      "matrix": [
        1.0,
        0.0,
        0.0,
        0.0,
        0.0,
        2.220446049250313e-16,
        1.0,
        0.0,
        0.0,
        -1.0,
        2.220446049250313e-16,
        0.0,
        0.0,
        0.0,
        0.0,
        1.0
      ],
      "name": "Object_5"
    },
    {
      "name": "Object_6"
    },
    {
      "children": [
        8
      ],
      "name": "Camera",
      "rotation": [
        -0.21255728602409363,
        0.9047970175743103,
        -0.08438936620950699,
        0.3592217266559601
      ],
      "scale": [
        100.0,
        100.00000762939453,
        99.99999237060547
      ],
      "translation": [
        793.025634765625,
        487.45013427734375,
        752.7984008789063
      ]
    },
    {
      "name": "Object_8"
    },
    {
      "children": [
        10
      ],
      "name": "Plane",
      "rotation": [
        -0.7071068286895752,
        0.0,
        0.0,
        0.7071067094802856
      ],
      "scale": [
        600.0,
        600.0,
        600.0
      ]
    },
    {
      "mesh": 0,
      "name": "Plane_wormhole_0"
    },
    {
      "children": [
        12
      ],
      "name": "Light.002",
      "rotation": [
        0.16907571256160736,
        0.7558803558349609,
        -0.2721713185310364,
        0.5709474682807922
      ],
      "scale": [
        100.00000762939453,
        100.0,
        100.0
      ],
      "translation": [
        -0.814656138420105,
        -311.2734680175781,
        3.776681423187256
      ]
    },
    {
      "children": [
        13
      ],
      "matrix": [
        1.0,
        0.0,
        0.0,
        0.0,
        0.0,
        2.220446049250313e-16,
        1.0,
        0.0,
        0.0,
        -1.0,
        2.220446049250313e-16,
        0.0,
        0.0,
        0.0,
        0.0,
        1.0
      ],
      "name": "Object_12"
    },
    {
      "name": "Object_13"
    }
  ],
  "samplers": [
    {
      "magFilter": 9729,
      "minFilter": 9987,
      "wrapS": 10497,
      "wrapT": 10497
    }
  ],
  "scene": 0,
  "scenes": [
    {
      "name": "Sketchfab_Scene",
      "nodes": [
        0
      ]
    }
  ],
  "textures": [
    {
      "sampler": 0,
      "source": 0
    }
  ]
}
